<svg width="720" height="720" viewBox="0 0 720 720" fill="none" xmlns="http://www.w3.org/2000/svg">
  <rect width="720" height="720" fill="#F2F0EC"/>
  <circle cx="360" cy="360" r="254" fill="#111111"/>
  <circle cx="360" cy="360" r="218" fill="#242424"/>
  <circle cx="360" cy="360" r="178" stroke="#D9D9D9" stroke-width="12"/>
  <circle cx="360" cy="360" r="80" fill="#1B1B1B" stroke="#303030" stroke-width="18"/>
  <circle cx="360" cy="360" r="26" fill="#111111" stroke="#303030" stroke-width="8"/>
  <path d="M360 206L414 328L528 286" stroke="#D9D9D9" stroke-width="20" stroke-linecap="round"/>
  <path d="M360 206L306 328L192 286" stroke="#D9D9D9" stroke-width="20" stroke-linecap="round"/>
  <path d="M208 484L316 392L360 528" stroke="#D9D9D9" stroke-width="20" stroke-linecap="round"/>
  <path d="M512 484L404 392L360 528" stroke="#D9D9D9" stroke-width="20" stroke-linecap="round"/>
  <path d="M182 244C224 220 258 206 292 196" stroke="#E73A30" stroke-width="26" stroke-linecap="round"/>
  <path d="M538 244C496 220 462 206 428 196" stroke="#E73A30" stroke-width="26" stroke-linecap="round"/>
  <path d="M176 514C216 530 254 540 288 544" stroke="#E73A30" stroke-width="24" stroke-linecap="round"/>
  <path d="M544 514C504 530 466 540 432 544" stroke="#E73A30" stroke-width="24" stroke-linecap="round"/>
  <text x="124" y="128" fill="#111111" font-size="44" font-family="Arial Black, Arial, sans-serif">FRONT</text>
  <text x="124" y="172" fill="#111111" font-size="44" font-family="Arial Black, Arial, sans-serif">&amp; REAR</text>
</svg>
