<svg width="720" height="720" viewBox="0 0 720 720" fill="none" xmlns="http://www.w3.org/2000/svg">
  <rect width="720" height="720" fill="#ECE7E0"/>
  <circle cx="360" cy="360" r="252" fill="#111111"/>
  <circle cx="360" cy="360" r="210" fill="#0D0D0D"/>
  <circle cx="360" cy="360" r="176" stroke="#D0D0D0" stroke-width="14"/>
  <circle cx="360" cy="360" r="84" fill="#0D0D0D" stroke="#1D1D1D" stroke-width="16"/>
  <circle cx="360" cy="360" r="26" fill="#0D0D0D" stroke="#1D1D1D" stroke-width="8"/>
  <path d="M360 198L426 340L544 286" stroke="#D0D0D0" stroke-width="18" stroke-linecap="round"/>
  <path d="M360 198L294 340L176 286" stroke="#D0D0D0" stroke-width="18" stroke-linecap="round"/>
  <path d="M220 504L322 400L360 538" stroke="#D0D0D0" stroke-width="18" stroke-linecap="round"/>
  <path d="M500 504L398 400L360 538" stroke="#D0D0D0" stroke-width="18" stroke-linecap="round"/>
  <path d="M516 192C470 206 440 218 418 236" stroke="#68E4C2" stroke-width="22" stroke-linecap="round"/>
  <path d="M190 500C240 520 276 532 314 540" stroke="#68E4C2" stroke-width="22" stroke-linecap="round"/>
  <path d="M478 164C500 170 518 176 536 186" stroke="#E6E66E" stroke-width="16" stroke-linecap="round"/>
</svg>
