<?xml version="1.0" encoding="UTF-8" standalone="no"?><!DOCTYPE svg PUBLIC "-//W3C//DTD SVG 1.1//EN" "http://www.w3.org/Graphics/SVG/1.1/DTD/svg11.dtd"><svg width="100%" height="100%" viewBox="0 0 323 123" version="1.1" xmlns="http://www.w3.org/2000/svg" xmlns:xlink="http://www.w3.org/1999/xlink" xml:space="preserve" xmlns:serif="http://www.serif.com/" style="fill-rule:evenodd;clip-rule:evenodd;stroke-linejoin:round;stroke-miterlimit:2;"><g><g><path d="M0.472,0.423l36.899,-0c10.305,1.033 15.891,6.714 16.759,17.044c0.287,6.479 -0.995,11.44 -3.845,14.884c4.222,2.942 6.154,8.467 5.796,16.574c-0.618,11.551 -7.204,17.248 -19.756,17.091l-36.325,0.047l0.472,-65.64Zm15.869,49.77l18.396,0.047c2.91,-0.125 4.458,-1.464 4.643,-4.015c0.185,-2.551 -1.4,-4.03 -4.754,-4.437l-18.22,-0.235l-0.065,8.64Zm0.063,-24.604l18.396,0.047c2.91,-0.125 4.459,-1.455 4.645,-3.991c0.186,-2.535 -1.328,-4.1 -4.544,-4.695l-18.431,0l-0.066,8.639Z" style="fill:#d9d9d9;fill-rule:nonzero;"/><path d="M56.792,0.423l15.574,-0l-0.579,65.734l-15.917,-0l0.922,-65.734Z" style="fill:#d9d9d9;fill-rule:nonzero;"/><path d="M75.116,0l17.441,0l-0.282,31.646c0.167,-4.038 1.335,-7.403 3.503,-10.095l14.333,-21.551l21.021,0l-17.816,29.815c-1.433,2.317 -1.377,4.696 0.169,7.137l17.268,28.923l-21.249,0l-14.141,-22.49c-2.098,-3.068 -3.131,-6.496 -3.098,-10.283l-0.315,32.773l-17.441,0l0.607,-65.875Z" style="fill:#d9d9d9;fill-rule:nonzero;"/><path d="M185.754,66.063l-37.547,-0c-10.82,-0.783 -16.156,-11.73 -16.007,-32.844c0.149,-21.113 6.024,-32.03 17.624,-32.749l36.519,-0l-0.15,15.964l-32.364,0.047c-2.751,-0.126 -4.328,0.719 -4.731,2.535l-0.891,5.634l37.969,0.047l-0.239,15.777l-37.675,-0.188l0.305,3.709c0.326,3.13 1.361,4.821 3.105,5.071l34.23,-0.047l-0.148,17.044Z" style="fill:#d9d9d9;fill-rule:nonzero;"/><path d="M188.846,0.329l36.938,-0c11.334,2.285 17.174,9.735 17.52,22.349c0.51,9.234 -1.936,16.543 -7.338,21.927l9.016,21.646l-17.784,-0l-8.72,-20.707l-14.128,0l-0.169,20.472l-15.99,0.047l0.655,-65.734Zm15.934,27.843l19.615,0.047c2.991,-0.063 4.583,-1.839 4.777,-5.329c0.194,-3.491 -1.317,-5.533 -4.533,-6.128l-19.763,0l-0.096,11.41Z" style="fill:#d9d9d9;fill-rule:nonzero;"/></g><g><g><path d="M98.43,110.3l1.24,-5.125l0.974,-2.559l-0.691,3.609l-0.575,3.801l-0.098,3.33l0.529,-4.848l0.106,1.048l-0.478,5.61l-0.014,1.142l0.39,2.004l0.592,-0.088l-0.207,2.567l0.693,-3.799l0.525,-4.563l0.803,-3.037l1.046,-3.7l1.109,-3.985l0.998,-4.652l0.933,-4.082l-0.385,2.66l-0.385,2.661l-1.122,5.127l-1.407,4.267l-0.867,3.512l-0.401,3.993l-0.081,1.903l0.695,-3.895l0.306,-0.948l1.106,-3.795l1.038,-2.938l1.239,-5.031l0.877,-4.368l0.794,-2.275l0.866,-3.417l0.681,-2.752l1.103,-3.509l-0.113,-0.478l0.336,-3.518l0.625,-2.943l0.377,-1.995l0.125,-0.569l1.138,-1.415l1.346,-4.077l0.814,-4.084l0.387,-2.851l1.933,-8.83l0.275,-3.423l-1.284,3.888l-0.097,-1.81l0.637,-4.086l-0.8,2.847l0.639,-4.181l-0.277,-1.621l-0.871,-1.248l-0.496,2.089l-1.046,3.604l-1.351,4.554l-1.159,3.222l-0.722,1.23l0.799,-2.752l1.528,-4.551l1.047,-3.7l-0.049,-0.857l-0.724,1.324l-1.706,4.549l-1.159,3.223l-1.33,2.745l-1.28,3.507l-1.115,4.461l0.523,0.767l-0.261,2.091l-0.596,0.565l-0.547,1.326l-0.179,0.188l-0.002,0.191l-0.609,1.611l-1.11,4.08l-0.865,3.321l-0.865,3.322l-0.762,4.655l-0.402,4.088l-0.269,2.853l-0.888,5.32l-0.928,3.701l-0.813,3.893l0.214,1.906Z" style="fill:#e75724;fill-rule:nonzero;"/><path d="M111.571,94.996l-0.859,4.19l-0.286,4.376l1.202,-4.841l0.515,-0.745l-0.63,4.655l0,1.49l0.573,-1.955l-0.744,4.655l0.229,1.304l0.858,1.024l0.058,1.303l0.744,-4.376l1.03,-3.724l1.088,-4.19l1.088,-4.376l1.03,-3.073l-0.63,3.166l-1.202,4.749l-1.145,4.189l-0.859,4.19l0.058,0.559l0.629,-1.117l1.317,-4.47l1.088,-3.445l1.145,-4.934l1.03,-1.583l0.973,-4.004l1.202,-4.19l-0.4,-0.559l0.515,-1.862l0.401,4.19l0.572,4.469l1.202,4.935l1.374,4.283l0.916,3.538l0.916,3.632l-0.057,0.279l0.172,0.093l0.171,0.745l0.516,1.21l-0.287,1.676l0.344,-1.396l0.286,0.558l-1.202,4.935l0.687,1.304l0.401,1.21l0.457,-1.769l1.317,-4.376l0,-0.093l0.229,0.652l-0.801,2.607l0.744,-1.118l0.572,-0.838l0.058,0.28l0.572,1.583l1.317,2.234l0.801,1.024l-0.744,-4.096l-0.63,-4.377l-0.057,-0.093l0.229,-0.651l0.114,0.372l0.687,4.283l0,-2.421l0.115,-1.303l-0.458,-2.421l0.801,-2.421l1.26,-4.842l1.087,-1.862l0.974,-4.19l1.316,-4.562l-0.572,-0.373l0.916,-4.096l0.343,-2.421l0.115,-0.373l1.374,-4.097l0.916,-5.307l0.458,-3.445l0.744,-4.283l0.973,-4.376l0.744,-3.818l-0.401,-0.465l-1.316,3.817l0.458,-3.072l0.629,-4.376l-0.686,3.258l0.057,-1.955l0.858,-4.748l-0.629,-1.397l-0.401,-1.304l-0.458,1.77l-1.088,4.189l-1.145,4.097l-1.202,4.004l-1.087,3.538l-0.745,1.862l0.687,-2.979l1.661,-5.401l1.087,-3.724l1.031,-4.19l-0.573,0.931l-0.63,1.024l-1.431,4.47l-1.202,3.538l-1.145,4.004l-1.259,2.42l-0.973,4.283l-1.317,4.563l0.572,0.372l-0.973,3.818l-0.629,3.352l-0.802,2.886l-0.286,0.931l-0.687,3.352l-0.172,-0.931l-0.572,-4.562l-0.63,0.279l-0.572,-3.724l-0.516,-2.98l0,-0.745l0.115,-2.793l-0.573,-4.749l-0.858,-4.003l-0.802,-3.073l-0.172,-0.652l0.058,-0.651l0.458,-3.259l1.259,-3.911l0.172,-3.259l-1.718,4.563l0.916,-4.47l0.058,-1.769l-0.573,1.397l0.973,-4.842l-0.572,-1.862l-0.401,-0.838l-1.202,4.656l-1.488,4.003l-0,0.093l-0.229,-0.651l1.03,-3.073l0.572,-2.886l-0.858,1.582l-1.202,2.98l-0.229,-0.745l0.171,1.024l-0.4,0.931l-0.115,0.28l-1.088,-2.235l0.63,2.421l-1.603,-4.19l-1.145,-0.559l-0.629,0.187l1.202,4.376l0.515,3.817l0.057,1.676l-0.343,1.304l-0.057,-3.911l-0.974,-3.631l-0.057,1.024l0.115,1.862l-0,3.631l0.229,3.352l-0.516,1.49l-1.087,4.283l0.343,1.118l-0.515,3.724l-1.145,3.631l0.458,0.838l-1.088,3.445l-1.087,3.631l-0.859,4.563l-0.687,4.748l-0.572,4.097Zm20.15,8.194l1.202,-4.19l0.516,-1.21l-0.573,3.165l-1.088,3.538l-0.114,-0.744l-0.057,-0.094l0.114,-0.465Zm-0.629,2.328l0.171,0.651l-0.057,0.094l-0.172,0.651l-0.171,-0.745l0.229,-0.651Zm-1.546,4.841l0.229,0.652l-0.115,0.279l-0.171,-0.651l0.057,-0.28Zm-1.718,-1.862l-0.114,-0.465l0.114,-0.559l0,1.024Zm-0.343,-3.072l0.286,0.838l-0.057,0.372l-0.114,0.745l-0,-0.093l-0.172,-1.583l0.057,-0.279Zm-5.381,-54.097l0.114,-0.279l0.115,0.651l-0.115,0.373l-0.171,-0.466l0.057,-0.279Z" style="fill:#e75724;fill-rule:nonzero;"/><path d="M136.296,76.963l-0.005,0.366l0.273,-0.272l1.431,0.658l4.115,1.879l3.756,1.784l2.409,1.585l-3.044,-1.135l-4.471,-2.158l-4.474,-1.884l1.061,1.477l4.47,2.25l3.394,1.962l2.136,1.947l2.683,1.222l-1.18,0.901l-1.825,2.175l-1.008,1.635l-0.815,0.448l-3.449,2.612l-2.282,2.81l-3.462,3.711l-3.998,3.429l-1.477,3.186l3.634,-3.068l-2.196,3.176l-0.466,1.368l0.815,-0.448l-2.281,2.718l0.427,1.927l0.354,0.461l3.631,-2.793l3.09,-2.709l4.079,-2.696l1.809,-0.894l-2.817,2.437l-4.442,2.967l-3.364,3.072l1.624,-0.439l2.265,-1.437l3.173,-2.067l4.625,-3.239l2.801,-1.065l3.36,-2.705l0.464,-1.275l2.633,-2.074l1.639,-1.628l0.452,-0.269l0.094,-0.273l0.636,-0.542l2.832,-3.718l2.009,-2.538l1.609,0.843l-1.153,-1.387l0.817,-0.631l2.694,0.307l0.542,-0.176l2.172,-1.164l-1.69,-1.576l-1.959,-1.579l0.273,-0.271l3.125,1.867l-1.411,-2.305l-0.711,-0.74l0.82,-0.905l-0.805,-0.376l1.093,-1.085l-1.059,-1.752l-0.718,-0.1l-2.086,1.44l-0.354,-0.462l0.726,-0.541l-1.169,-0.014l-1.064,-1.293l-3.04,-1.501l-3.854,-1.053l-1.712,0.254l-3.589,-0.683l-2.688,-0.856l2.994,-2.16l3.183,-2.982l2.458,-2.533l2.644,-2.989l3.281,-3.621l2.638,-2.531l3.81,-2.7l3.003,-2.984l-2.623,1.25l-3.26,1.883l3.366,-3.163l3.001,-2.801l-2.36,1.802l0.008,-0.64l3.905,-3.157l1.184,-1.267l-0.613,-1.38l1,-0.903l-4.436,2.418l-3.351,1.973l-3.897,2.516l-3.896,2.424l-3.902,2.882l0.732,-0.998l2.092,-1.988l5.343,-3.139l3.355,-2.248l3.807,-2.517l-0.447,-0.188l-1.624,0.438l-4.074,2.239l-3.35,1.882l-4.44,2.784l-3.358,2.522l-2.625,1.433l-3.999,3.521l-2.642,2.806l0.443,0.554l-2.547,2.44l-2.285,3.085l-2.193,2.902l-0.138,4.025l-0.09,-0.001l-2.438,0.794l2.414,1.219Zm8.027,-1.918l0.358,0.096l-0.539,-0.006l0.181,-0.09Zm-6.021,-0.438l0.625,0.374l-0.899,-0.011l0.274,-0.363Z" style="fill:#e75724;fill-rule:nonzero;"/><path d="M165.856,56.767l-3.02,2.64l-0.069,0.489l-1.304,2.249l1.373,0.782l3.226,-0.88l3.5,-0.489l-0.961,0.978l-4.118,0.684l-0.48,0.782l2.471,0.098l3.706,-0.684l1.921,0.489l1.442,-1.076l-0.893,4.205l-1.098,2.151l-0.961,3.52l-1.372,5.182l-0.206,1.663l-0.069,2.053l-1.029,3.325l-0.892,4.009l-0.138,1.466l-0.137,0.587l-0.686,4.205l-0.343,4.204l-0.618,4.889l-1.03,4.792l-0.274,4.693l1.098,-3.911l0.618,-0.782l-0.412,5.084l0.206,-0.195l0.274,0.391l-0.549,5.378l0.824,2.249l0.755,0.587l0.618,-4.498l1.029,-4.694l1.167,-4.302l1.304,-4.498l0.686,-1.663l-0.618,3.423l-1.715,5.378l-0.893,4.302l-0.343,3.814l0.824,-2.543l1.167,-4.498l1.235,-3.618l1.373,-5.182l1.304,-2.542l1.098,-5.183l0.48,-3.422l-0.206,-2.542l0.343,-1.76l0.343,-1.174l0,-0.098l1.51,-4.4l0.961,-4.107l0.687,-4.204l0.823,-6.063l0.549,-3.911l0.892,-4.498l3.02,-1.467l3.226,-1.564l2.882,-1.173l-0.686,-0.88l-0.206,-0.783l2.883,-1.173l-2.059,-0.293l3.431,-0.587l0.275,-2.151l-0.343,-0.489l-3.775,-0.391l-3.432,0.684l-3.637,0.489l2.059,-0.978l3.706,-0.391l3.843,-0.195l-0.48,-0.685l-3.363,-0.587l-3.088,0.196l-2.883,0.195l-1.647,0l0.069,-0.293l-0.687,-2.249l-0.617,-0.782l-0.344,1.564l-0.343,2.152l-0.892,0.195l0.206,-1.467l-0.481,1.663l-2.402,1.075l-2.539,0.978l-0.275,0.587l-0.892,0.098l-2.676,1.075l-2.608,2.347l-3.501,2.249l2.883,-0.293Zm8.373,7.822l0.824,-2.836l0.549,-0.391l-0.618,2.445l-1.167,5.085l-0.068,-1.174l0.48,-3.129Z" style="fill:#e75724;fill-rule:nonzero;"/><path d="M178.313,104.708l1.182,-4.71l0.946,-2.354l-0.65,3.314l-0.532,3.488l-0.059,3.053l0.473,-4.448l0.118,0.959l-0.414,5.146l0,1.047l0.414,1.831l0.591,-0.087l-0.178,2.355l0.651,-3.489l0.472,-4.186l0.769,-2.791l1.005,-3.401l1.063,-3.663l0.946,-4.274l0.887,-3.75l-0.71,4.884l-1.063,4.709l-1.36,3.925l-0.827,3.227l-0.355,3.663l-0.059,1.744l0.65,-3.575l0.296,-0.873l1.063,-3.488l1.005,-2.704l1.182,-4.622l0.828,-4.012l0.768,-2.093l0.828,-3.14l0.65,-2.529l1.064,-3.227l-0.119,-0.436l0.296,-3.227l0.591,-2.704l0.354,-1.831l0.119,-0.524l1.123,-1.308l1.3,-3.75l0.768,-3.75l0.355,-2.617l1.832,-8.111l0.237,-3.14l-1.242,3.576l-0.118,-1.657l0.591,-3.75l-0.768,2.616l0.591,-3.837l-0.296,-1.483l-0.886,-1.134l-0.473,1.919l-1.005,3.314l-1.3,4.187l-1.123,2.965l-0.709,1.134l0.768,-2.53l1.478,-4.186l1.004,-3.401l-0.059,-0.785l-0.709,1.221l-1.655,4.186l-1.123,2.965l-1.3,2.53l-1.241,3.227l-1.064,4.099l0.532,0.697l-0.237,1.919l-0.591,0.524l-0.532,1.221l-0.177,0.174l0,0.174l-0.591,1.483l-1.064,3.75l-0.827,3.053l-0.828,3.052l-0.709,4.274l-0.354,3.75l-0.237,2.617l-0.827,4.884l-0.887,3.401l-0.768,3.576l0.236,1.744Z" style="fill:#e75724;fill-rule:nonzero;"/><path d="M190.653,95.046l-0.858,4.387l-0.286,4.582l1.202,-5.069l0.515,-0.78l-0.63,4.874l0,1.56l0.573,-2.047l-0.745,4.874l0.229,1.364l0.859,1.073l0.057,1.364l0.745,-4.581l1.03,-3.9l1.088,-4.386l1.087,-4.582l1.031,-3.217l-0.63,3.315l-1.202,4.971l-1.145,4.387l-0.859,4.387l0.058,0.584l0.629,-1.169l1.317,-4.679l1.088,-3.607l1.145,-5.167l1.03,-1.657l0.973,-4.192l1.202,-4.387l-0.4,-0.584l0.515,-1.95l0.401,4.387l0.572,4.679l1.202,5.166l1.374,4.485l0.916,3.704l0.916,3.802l-0.057,0.292l0.171,0.098l0.172,0.779l0.515,1.268l-0.286,1.754l0.344,-1.462l0.286,0.585l-1.202,5.167l0.687,1.364l0.4,1.268l0.458,-1.852l1.317,-4.582l0,-0.098l0.229,0.683l-0.801,2.729l0.744,-1.17l0.572,-0.877l0.057,0.293l0.573,1.657l1.317,2.339l0.801,1.073l-0.744,-4.29l-0.63,-4.581l-0.057,-0.098l0.229,-0.682l0.114,0.39l0.687,4.484l0,-2.535l0.115,-1.364l-0.458,-2.535l0.801,-2.534l1.26,-5.069l1.087,-1.95l0.974,-4.387l1.316,-4.776l-0.572,-0.39l0.916,-4.29l0.343,-2.534l0.115,-0.39l1.374,-4.289l0.915,-5.557l0.458,-3.607l0.745,-4.484l0.973,-4.582l0.744,-3.996l-0.401,-0.488l-1.316,3.997l0.458,-3.217l0.629,-4.582l-0.687,3.412l0.058,-2.047l0.858,-4.972l-0.629,-1.462l-0.401,-1.365l-0.458,1.853l-1.088,4.386l-1.145,4.29l-1.202,4.191l-1.088,3.705l-0.744,1.949l0.687,-3.119l1.66,-5.654l1.088,-3.899l1.03,-4.387l-0.572,0.975l-0.63,1.072l-1.431,4.679l-1.202,3.705l-1.145,4.191l-1.259,2.535l-0.974,4.484l-1.316,4.777l0.572,0.39l-0.973,3.996l-0.63,3.51l-0.801,3.022l-0.286,0.975l-0.687,3.509l-0.172,-0.975l-0.572,-4.777l-0.63,0.293l-0.573,-3.899l-0.515,-3.12l0,-0.78l0.115,-2.924l-0.573,-4.972l-0.859,-4.192l-0.801,-3.216l-0.172,-0.683l0.058,-0.682l0.458,-3.412l1.259,-4.094l0.172,-3.412l-1.718,4.776l0.916,-4.679l0.057,-1.852l-0.572,1.462l0.973,-5.069l-0.572,-1.95l-0.401,-0.877l-1.202,4.874l-1.489,4.192l0,0.098l-0.229,-0.683l1.031,-3.217l0.572,-3.022l-0.858,1.657l-1.203,3.12l-0.228,-0.78l0.171,1.072l-0.4,0.975l-0.115,0.293l-1.088,-2.34l0.63,2.535l-1.603,-4.387l-1.145,-0.585l-0.629,0.195l1.202,4.582l0.515,3.996l0.057,1.755l-0.343,1.365l-0.058,-4.094l-0.973,-3.802l-0.057,1.072l0.115,1.95l-0,3.802l0.228,3.509l-0.515,1.56l-1.087,4.484l0.343,1.17l-0.515,3.899l-1.145,3.802l0.458,0.877l-1.088,3.607l-1.087,3.802l-0.859,4.776l-0.687,4.972l-0.573,4.289Zm20.151,8.579l1.202,-4.387l0.515,-1.267l-0.572,3.314l-1.088,3.705l-0.114,-0.78l-0.057,-0.098l0.114,-0.487Zm-0.63,2.437l0.172,0.682l-0.057,0.098l-0.172,0.682l-0.172,-0.78l0.229,-0.682Zm-1.545,5.069l0.229,0.682l-0.115,0.293l-0.172,-0.683l0.058,-0.292Zm-1.718,-1.95l-0.114,-0.487l0.114,-0.585l0,1.072Zm-0.343,-3.217l0.286,0.878l-0.057,0.39l-0.115,0.78l0,-0.098l-0.171,-1.657l0.057,-0.293Zm-5.381,-56.637l0.114,-0.293l0.115,0.683l-0.115,0.39l-0.172,-0.488l0.058,-0.292Z" style="fill:#e75724;fill-rule:nonzero;"/><path d="M243.612,99.699l-0.326,0.225l0.326,-1.874l0,1.649Zm-21.016,-33.668l-0.457,1.725l-0.979,3.299l-1.37,3.45l0.13,-0l-0.13,0.225l-1.24,3.224l-0.457,3.599l-0.522,4.424l-0.261,3.974l-1.045,3.6l0.327,4.424l1.631,3.899l5.874,4.274l4.112,-0.9l3.525,-1.874l3.524,-3.45l1.828,-3.674l-0.457,-0.3l-2.48,3.524l1.501,-3.224l1.175,-2.999l-1.175,2.324l0.457,-1.799l1.566,-2.775l-0.522,-1.2l-0.457,-1.124l-0.587,1.199l-1.763,2.55l-2.088,3.224l-1.893,2.1l-2.48,1.05l-1.044,-0.075l1.827,-0.675l2.676,-1.8l2.023,-3.074l1.958,-3.15l-1.174,0.975l-0.718,0.45l-2.415,3.449l-1.371,1.35l-2.415,1.05l-1.566,-0.45l-0.392,0.15l-0.652,-1.5l-0.588,0.375l-0.457,-1.425l-0.457,-2.324l0.261,-0.975l-0.13,-0.375l0.392,-2.399l1.044,-3.675l1.175,-1.874l1.044,-3.299l-0.261,-0.975l0.848,-2.55l1.11,-2.249l-0.196,-1.65l0.849,-0.975l1.762,-3.824l-0.131,-0.75l1.11,-2.174l0.914,-1.725l0.456,-0.525l1.24,-2.699l1.893,-1.725l0.653,-0.6l0.065,0.3l0.457,3.524l0.653,2.55l0.587,2.399l-0.13,3l-0.392,3.824l0.718,-0.975l0.848,-2.249l-0.261,4.049l0.196,0.3l0.261,0.15l-0.652,3.299l0.717,1.35l0.392,0.9l1.24,-3.75l1.044,-3.449l0.914,-3.524l0.392,-4.574l0.261,1.274l-0.327,3.9l-1.109,3.824l-1.044,3.974l0.848,-1.125l0.849,-1.649l1.109,-3.525l0.783,-4.649l0.653,-2.849l-0.457,-3.749l-0.391,-3.6l-1.045,-1.574l-1.175,-2.925l-3.002,-3.824l-3.785,0.675l0.522,1.35l-3.002,1.499l-3.133,1.65l-2.676,2.025l-2.48,2.699l-0.392,1.2l-1.828,3.074l-0.848,2.4l0.065,1.724Zm11.161,-13.422l2.937,-1.65l0.587,-0.3l0.066,0.3l-0.131,0.225l-0.261,0.075l-2.872,1.725l-3.263,2.025l-0.261,-0.15l3.198,-2.25Zm-10.247,31.869l-0.587,2.624l-0.261,1.575l-0.066,-0.225l-0.457,0.075l0.718,-2.775l0.653,-1.274Z" style="fill:#e75724;fill-rule:nonzero;"/><path d="M240.518,54.297l-3.641,2.554l-0.083,0.473l-1.572,2.175l1.655,0.757l3.889,-0.851l4.221,-0.473l-1.159,0.946l-4.965,0.662l-0.579,0.756l2.979,0.095l4.469,-0.662l2.317,0.473l1.738,-1.041l-1.076,4.067l-1.324,2.081l-1.159,3.405l-1.655,5.013l-0.248,1.607l-0.083,1.987l-1.241,3.215l-1.076,3.878l-0.165,1.419l-0.166,0.567l-0.828,4.067l-0.413,4.067l-0.745,4.729l-1.241,4.634l-0.331,4.54l1.324,-3.783l0.744,-0.757l-0.496,4.918l0.248,-0.189l0.331,0.379l-0.662,5.201l0.993,2.176l0.911,0.567l0.744,-4.35l1.242,-4.54l1.406,-4.162l1.573,-4.35l0.827,-1.608l-0.745,3.31l-2.068,5.202l-1.076,4.161l-0.414,3.689l0.993,-2.459l1.407,-4.351l1.489,-3.499l1.655,-5.013l1.573,-2.459l1.324,-5.013l0.579,-3.31l-0.248,-2.459l0.414,-1.702l0.413,-1.135l0,-0.095l1.821,-4.256l1.158,-3.972l0.828,-4.067l0.993,-5.864l0.662,-3.783l1.076,-4.351l3.641,-1.419l3.889,-1.513l3.476,-1.135l-0.828,-0.851l-0.248,-0.757l3.476,-1.135l-2.483,-0.283l4.138,-0.568l0.331,-2.08l-0.414,-0.473l-4.551,-0.379l-4.138,0.662l-4.386,0.473l2.483,-0.946l4.468,-0.378l4.634,-0.189l-0.579,-0.662l-4.055,-0.568l-3.724,0.19l-3.475,0.189l-1.986,-0l0.083,-0.284l-0.828,-2.175l-0.745,-0.757l-0.414,1.513l-0.413,2.081l-1.076,0.189l0.248,-1.418l-0.579,1.607l-2.896,1.041l-3.062,0.946l-0.331,0.567l-1.076,0.095l-3.227,1.04l-3.145,2.27l-4.22,2.175l3.475,-0.284Zm10.096,7.567l0.993,-2.743l0.662,-0.378l-0.745,2.364l-1.406,4.918l-0.083,-1.135l0.579,-3.026Z" style="fill:#e75724;fill-rule:nonzero;"/></g></g><g><g><path d="M277.363,93.864l-13.569,0c-3.925,-0.282 -5.859,-4.243 -5.802,-11.883c0.057,-7.639 2.18,-11.589 6.368,-11.849l13.213,0.017l-0.053,5.781l-11.672,-0c-0.87,0.011 -1.48,0.389 -1.829,1.135c-0.724,2.939 -0.885,5.877 -0.482,8.815c0.168,0.938 0.67,1.537 1.504,1.797l12.376,0.034l-0.054,6.153Z" style="fill:#d9d9d9;fill-rule:nonzero;"/><path d="M293.115,94.203l-9.129,0c-4.058,0.023 -6.038,-4.006 -5.939,-12.086c0.046,-8.171 2.221,-12.279 6.526,-12.324l7.494,0.017c4.493,-0.102 6.668,3.842 6.526,11.832c0.291,8.273 -1.535,12.46 -5.478,12.561Zm-9.527,-8.238c0.353,1.085 0.963,1.729 1.83,1.932l5.388,-0.017c0.907,-0.124 1.512,-0.638 1.814,-1.542c0.403,-0.633 0.604,-2.178 0.602,-4.636c-0.002,-2.458 -0.252,-4.026 -0.75,-4.704c-0.481,-0.712 -1.18,-1.119 -2.094,-1.221l-4.152,0c-1.193,0.113 -1.994,0.831 -2.403,2.153c-0.286,0.61 -0.448,1.992 -0.486,4.145c-0.039,2.152 0.045,3.449 0.251,3.89Z" style="fill:#d9d9d9;fill-rule:nonzero;"/><path d="M299.202,93.966l0.228,-23.851l17.258,0.051c3.803,-0.136 5.784,2.373 5.943,7.527l-0.154,16.256l-4.881,0l0.123,-14.392c0.147,-1.785 -0.333,-2.655 -1.439,-2.61l-2.583,0.017l-0.172,16.968l-4.865,0.017l0.153,-17.036l-4.167,-0.017l-0.151,17.07l-5.293,0Z" style="fill:#d9d9d9;fill-rule:nonzero;"/></g><rect x="252.19" y="87.568" width="5.395" height="6.206" style="fill:#d9d9d9;"/></g></g></svg>