<?xml version="1.0" encoding="UTF-8" standalone="no"?><!DOCTYPE svg PUBLIC "-//W3C//DTD SVG 1.1//EN" "http://www.w3.org/Graphics/SVG/1.1/DTD/svg11.dtd"><svg width="100%" height="100%" viewBox="0 0 125 76" version="1.1" xmlns="http://www.w3.org/2000/svg" xmlns:xlink="http://www.w3.org/1999/xlink" xml:space="preserve" xmlns:serif="http://www.serif.com/" style="fill-rule:evenodd;clip-rule:evenodd;stroke-linejoin:round;stroke-miterlimit:2;"><path d="M9.315,22.856l21.611,-0l-0.958,6.006l5.988,0.017l-3.226,18.398l-5.944,-0.087l-1.788,9.908l11.331,0.033c2.965,-0.144 4.794,-1.678 5.49,-4.604c0.695,-2.926 -0.611,-4.622 -3.917,-5.089l-5.187,-0.076l3.238,-18.462l5.343,0.015c2.964,-0.143 4.793,-1.669 5.486,-4.577c0.694,-2.907 -0.524,-4.702 -3.653,-5.384l-5.432,-0l3.324,-18.954l7.896,0c10.2,1.185 16.611,7.7 15.429,19.546c-1.002,7.431 -3.285,13.121 -6.849,17.069c3.677,3.375 4.527,9.711 2.55,19.008c-2.926,13.246 -12.613,19.78 -25.257,19.6l-6.963,0.01l-27.827,0.044l9.315,-52.421Zm0.828,-3.902l3.414,-18.954l27.464,0l-3.324,18.954l-5.941,-0l0,0l-21.613,0Z" style="fill:#808080;fill-rule:nonzero;"/><path d="M119.393,22.979l-10.791,52.406l-23.109,-0l11.136,-52.406l22.764,0Zm0.829,-4.025l-22.737,0l4.028,-18.954l22.611,0l-3.902,18.954Z" style="fill:#808080;fill-rule:nonzero;"/><path d="M92.582,22.979l-10.79,52.406l-23.11,-0l11.137,-52.406l22.763,0Zm0.829,-4.025l-22.737,0l4.028,-18.954l22.612,0l-3.903,18.954Z" style="fill:#808080;fill-rule:nonzero;"/></svg>